<?xml version="1.0"?>
<svg width="1063.5955" height="1306.0063" xmlns="http://www.w3.org/2000/svg" xmlns:svg="http://www.w3.org/2000/svg" xmlns:xlink="http://www.w3.org/1999/xlink">
 <defs>
  <linearGradient id="linearGradient5378">
   <stop id="stop5380" offset="0" stop-color="#686a6e"/>
   <stop id="stop5410" offset="0.5" stop-color="#686a6e"/>
   <stop id="stop5382" offset="1" stop-color="#686a6e" stop-opacity="0"/>
  </linearGradient>
  <radialGradient cx="486.32" cy="-50.613" gradientTransform="matrix(-.0032427 1.3444 -1.9632 -.0047353 420.64 -710.19)" gradientUnits="userSpaceOnUse" id="radialGradient5384" r="33.141" xlink:href="#linearGradient5378"/>
  <radialGradient cx="1465.9" cy="1184.7" gradientTransform="matrix(8.294e-7 -1.3399 1.2274 7.5974e-7 11.836 3149.1)" gradientUnits="userSpaceOnUse" id="radialGradient5400" r="33.156" xlink:href="#linearGradient5378"/>
  <radialGradient cx="513.12" cy="1183.8" gradientTransform="matrix(1.2712 .0000016299 -.0000017113 1.3346 -138.88 -396.58)" gradientUnits="userSpaceOnUse" id="radialGradient5408" r="33.141" xlink:href="#linearGradient5378"/>
  <radialGradient cx="1467.8" cy="158.67" gradientTransform="matrix(-1.8819 -1.4897e-7 3.9598e-7 -5.0023 4229.9 749.98)" gradientUnits="userSpaceOnUse" id="radialGradient5464" r="136.56">
   <stop id="stop5460" offset="0" stop-color="#b0b0b2"/>
   <stop id="stop5466" offset="0.5" stop-color="#b0b0b2"/>
   <stop id="stop5462" offset="1" stop-color="#b0b0b2" stop-opacity="0"/>
  </radialGradient>
  <radialGradient cx="1459.6" cy="-208.55" gradientTransform="matrix(-1.8321 0 0 -.44989 4133.6 -148.91)" gradientUnits="userSpaceOnUse" id="radialGradient5513" r="258.06">
   <stop id="stop5509" offset="0" stop-color="#5d5e61"/>
   <stop id="stop5515" offset="0.2523" stop-color="#5d5e61"/>
   <stop id="stop5511" offset="1" stop-color="#5d5e61" stop-opacity="0"/>
  </radialGradient>
  <radialGradient cx="2509.4" cy="86.459" gradientTransform="matrix(-1.4232 0 0 -1.0201 5040.7 35.722)" gradientUnits="userSpaceOnUse" id="radialGradient5548" r="481">
   <stop id="stop5544" offset="0" stop-color="#4e4f51"/>
   <stop id="stop5550" offset="0.21944" stop-color="#4e4f51"/>
   <stop id="stop5546" offset="1" stop-color="#000000"/>
  </radialGradient>
  <linearGradient id="linearGradient5605" x1="0.999974" x2="0.073542" y1="-0.259587" y2="0.899212">
   <stop id="stop16022" offset="0" stop-color="#282c32"/>
   <stop id="stop16024" offset="1" stop-color="#000000"/>
  </linearGradient>
  <linearGradient id="linearGradient5623" x1="0.999949" x2="0.714124" y1="0" y2="0.202957">
   <stop id="stop5619" offset="0" stop-color="#595b5e"/>
   <stop id="stop5625" offset="0.5" stop-color="#595b5e"/>
   <stop id="stop5621" offset="1" stop-color="#595b5e" stop-opacity="0"/>
  </linearGradient>
  <linearGradient id="linearGradient5648" x1="0.499971" x2="0.499971" y1="-0.000029" y2="1.000029">
   <stop id="stop5733-8-1-8" offset="0" stop-color="#151515"/>
   <stop id="stop5735-3-0-0" offset="0.60526" stop-color="#151515"/>
   <stop id="stop5731-9-2-5" offset="0.81579" stop-color="#525252"/>
   <stop id="stop5668-3-6-9" offset="1" stop-color="#919192"/>
  </linearGradient>
  <linearGradient id="linearGradient6174-5-6-6" x1="0.520367" x2="0.520367" y1="0.000064" y2="0.648717">
   <stop id="stop5902-6-25-2-9" offset="0" stop-color="#262a2d"/>
   <stop id="stop5908-3-6-4-7" offset="0.12389" stop-color="#606567"/>
   <stop id="stop5910-6-2-1-8" offset="0.2677" stop-color="#262a2d"/>
   <stop id="stop5904-5-0-0-3" offset="1" stop-color="#262a2d"/>
  </linearGradient>
  <linearGradient id="linearGradient5776" x1="0.682254" x2="0.682254" y1="-0.000061" y2="1.01134">
   <stop id="stop5902-8-1-1" offset="0" stop-color="#262a2d"/>
   <stop id="stop5908-8-5-3" offset="0.12389" stop-color="#606567"/>
   <stop id="stop5910-3-9-0" offset="0.2677" stop-color="#262a2d"/>
   <stop id="stop5904-1-1-7" offset="1" stop-color="#262a2d"/>
  </linearGradient>
  <linearGradient id="linearGradient5848" x1="0.520367" x2="0.520367" y1="0.02206" y2="0.893659">
   <stop id="stop5885" offset="0" stop-color="#262a2d"/>
   <stop id="stop5887" offset="0.085911" stop-color="#606567"/>
   <stop id="stop5889" offset="0.20801" stop-color="#262a2d"/>
   <stop id="stop5891" offset="1" stop-color="#262a2d"/>
  </linearGradient>
 </defs>
 <metadata>image/svg+xmlOpenclipartiPad2010-03-03T09:44:05Realistic iPadhttps://openclipart.org/detail/29785/ipad-by-benboisBenBoisiPad realistic</metadata>
 <g class="layer">
  <title>Layer 1</title>
  <path d="m100.860015,15.728c-35.654,0 -64.344,28.69 -64.344,64.344l0,1143.5c0,35.654 28.69,64.344 64.344,64.344l865.97,0c35.654,0 64.375,-28.69 64.375,-64.344l0,-1143.5c0,-35.654 -28.721,-64.344 -64.375,-64.344l-865.97,0zm3.5948,2.4688l860.44,0c35.494,0 64.062,28.569 64.062,64.063l0,1138.3c0,35.494 -28.569,64.063 -64.062,64.063l-862.09,0c-35.494,0 -64.063,-28.569 -64.063,-64.063l1.65,-1138.3c0,-35.494 28.569,-64.063 64.063,-64.063z" fill="#dcdde0" id="rect6365-7-7"/>
  <path d="m1031.790015,154.126l-2.4423,0l0,15.14l1.0357,0c0.7311,0 1.4066,-0.81371 1.4066,-2.1164l0,-13.024l0,0.0004z" fill="url(#linearGradient5776)" id="rect5897-7"/>
  <path d="m1031.090015,214.266l-1.7504,0l0,30.976l1.2189,0c0.2514,-2.3627 1.6802,-12.023 1.6802,-14.54l0,-15.888c0,-0.30359 -0.5124,-0.54798 -1.1487,-0.54798l0,-0.00002z" fill="url(#linearGradient6174-5-6-6)" id="rect5897-5-0"/>
  <path d="m1031.090015,294.466l-1.7504,0l0,-30.976l1.2189,0c0.2514,2.3627 1.6802,12.023 1.6802,14.54l0,15.888c0,0.30359 -0.5124,0.54798 -1.1487,0.54798l0,0.00002z" fill="url(#linearGradient5848)" id="rect5897-5-0-0"/>
  <path d="m1029.390015,214.266l0,30.976l1.1053,0l0,-30.976l-1.1053,0z" fill="#393a3b" id="rect5897-5-0-3"/>
  <path d="m1029.390015,263.486l0,30.976l1.1053,0l0,-30.976l-1.1053,0z" fill="#444448" id="rect5897-5-0-3-3"/>
  <path d="m1030.490015,154.126l-1.1053,0l0,15.14l1.1053,0l0,-15.14z" fill="#353537" id="rect5897-7-3"/>
  <rect fill="#000000" fill-opacity="0.24" height="1266.4" id="rect6365" rx="64.068" ry="64.068" width="988.57" x="38.740015" y="24.19"/>
  <path d="m100.860015,15.728c-35.654,0 -64.344,28.69 -64.344,64.344l0,1143.5c0,35.654 28.69,64.344 64.344,64.344l864.31,0c35.654,0 64.375,-28.69 64.375,-64.344l0,-1143.5c0,-35.654 -28.721,-64.344 -64.375,-64.344l-864.31,0zm1.9375,2.4688l860.44,0c35.494,0 64.062,28.569 64.062,64.063l0,1138.3c0,35.494 -28.569,64.063 -64.062,64.063l-860.44,0c-35.494,0 -64.062,-28.569 -64.062,-64.063l0,-1138.3c0,-35.494 28.569,-64.063 64.062,-64.063z" fill="#989aa3" id="rect6365-7"/>
  <path d="m102.800015,18.197c-35.494,0 -64.062,28.569 -64.062,64.062l0,1138.3c0,35.494 28.569,64.063 64.062,64.063l860.44,0c35.494,0 64.062,-28.569 64.062,-64.063l0,-1138.3c0,-35.494 -28.569,-64.062 -64.062,-64.062l-860.44,0zm1.2187,4.4062l858,0c33.777,0 60.969,27.191 60.969,60.969l0,1133.4c0,33.777 -27.192,60.969 -60.969,60.969l-858,0c-33.777,0 -60.969,-27.191 -60.969,-60.969l0,-1133.4c0,-33.777 27.191,-60.969 60.969,-60.969z" fill="#eaeaec" id="rect6365-8"/>
  <path d="m104.010015,22.603c-33.777,0 -60.969,27.191 -60.969,60.969l0,1133.4c0,14.987 5.3743,28.687 14.281,39.281c-8.3061,-10.426 -13.281,-23.653 -13.281,-38.094l0.01,-1134c0,-33.794 27.13,-61 60.84,-61l856.25,0c33.708,0 60.844,27.206 60.844,61l0,1134c0,14.486 -4.9906,27.746 -13.344,38.188c8.9584,-10.608 14.344,-24.34 14.344,-39.375l0,-1133.4c-0.0001,-33.777 -27.192,-60.969 -60.969,-60.969l-858,0l-0.006,0z" fill="#000000" fill-opacity="0.24" id="rect6365-9"/>
  <path d="m104.890015,23.166c-33.708,0 -60.844,27.206 -60.844,61l0,1134c0,33.794 27.135,61 60.844,61l856.25,0c33.708,0 60.844,-27.206 60.844,-61l0,-1134c0,-33.794 -27.1,-61 -60.8,-61l-856.25,0l-0.044,0z" fill="#232427" id="rect6365-9-4-0"/>
  <path d="m104.890015,23.166c-33.708,0 -60.844,27.206 -60.844,61l0,1134c0,33.794 27.135,61 60.844,61l857.35,0c33.708,0 60.844,-27.206 60.844,-61l0,-1134c0.1,-33.794 -25.1,-61 -58.8,-61l-859.29,0l-0.104,0zm0.75,1.3125l857.63,0c33.642,0 58.785,27.175 58.785,60.906l0,1131.9c0,33.731 -27.077,60.906 -60.719,60.906l-855.7,0c-33.642,0 -60.719,-27.175 -60.719,-60.906l0,-1131.9c0,-33.731 27.077,-60.906 60.719,-60.906l0.004,0z" fill="#a6a7a7" id="rect6365-9-4"/>
  <rect fill="url(#radialGradient5548)" height="1239.9" id="rect6365-9-4-8" rx="47.961" ry="47.961" width="961.99" x="50.800015" y="31.694"/>
  <path d="m100.860015,15.728c-35.654,0 -64.344,28.69 -64.344,64.344l2.2188,2.1875c0,-35.494 28.569,-64.063 64.062,-64.063l24.084,0l0,-2.4688l-26.022,0l0.0012,0.0003z" fill="url(#radialGradient5384)" id="path5376"/>
  <path d="m963.190015,18.197c35.494,0 64.062,28.569 64.062,64.063l0,62.921l2.25,0l0,-65.108c0,-35.654 -28.721,-64.344 -64.375,-64.344l-451.75,0l0,2.4688l449.82,0l-0.0002,0l-0.0068,-0.0008z" fill="url(#radialGradient5513)" id="path5374"/>
  <path d="m1027.290015,1220.566c0,35.494 -28.569,64.062 -64.062,64.063l1.9374,3.25c35.654,0 64.375,-28.69 64.375,-64.344l-2.25,-2.9688l-0.0004,-0.0002z" fill="url(#radialGradient5400)" id="path5372"/>
  <path d="m36.510015,1223.566c0,35.654 28.69,64.344 64.344,64.344l1.9375,-3.25c-35.494,0 -64.062,-28.569 -64.062,-64.063l-2.2188,2.9688l-0.0007,0.0002z" fill="url(#radialGradient5408)" id="rect6365-7-5"/>
  <path d="m143.780015,0z" fill="#000000" id="path5358"/>
  <path d="m754.190015,18.197l0,4.4062l207.84,0c33.777,0 60.969,27.191 60.969,60.969l0,639.8l4.3124,0l0,-641.11c0,-35.494 -28.569,-64.063 -64.062,-64.063l-209.06,0l0.0006,-0.0022z" fill="url(#radialGradient5464)" id="path5456"/>
  <path d="m146.830015,136.447l0,1031l776,0l0,-1031l-776,0zm4,3l768,0l0,1024l-768,0l0,-1024z" fill="url(#linearGradient5623)" id="rect5552"/>
  <rect fill="url(#linearGradient5605)" height="1024" id="rect5552-6" width="768" x="150.810015" y="139.453"/>
  <path d="m563.576298,1227.672269a28.550404,28.550404 0 1 1 -57.100809,0a28.550404,28.550404 0 1 1 57.100809,0z" fill="url(#linearGradient5648)" id="path5662-5"/>
  <path d="m562.590015,1227.666c0,-15.215 -12.334,-27.548 -27.548,-27.548c-15.215,0 -27.548,12.334 -27.548,27.548c0,2.6334 0.3694,5.1805 1.0594,7.5922c21.095,8.1265 36.758,7.9647 52.99,-0.043c0.6822,-2.3991 1.0473,-4.9316 1.0473,-7.5494l-0.0007,0.0002z" fill="#070707" id="path5662-4-0"/>
  <path d="m529.510015,1217.166c-2.4049,0 -4.3462,1.9413 -4.3462,4.3462l0,11.351c0,2.4049 1.9413,4.3462 4.3462,4.3462l11.351,0c2.4049,0 4.3462,-1.9413 4.3462,-4.3462l0,-11.351c0,-2.4049 -1.9413,-4.3462 -4.3462,-4.3462l-11.351,0zm0.3835,1.6619l10.584,0c1.6957,0 3.0679,1.3721 3.0679,3.0679l0,10.584c0,1.6957 -1.3722,3.0423 -3.0679,3.0423l-10.584,0c-1.6958,0 -3.0424,-1.3466 -3.0424,-3.0423l0,-10.584c0,-1.6958 1.3466,-3.0679 3.0424,-3.0679z" fill="#ccced1" id="rect5742-4"/>
  <path d="m875.390015,12.234l49.263,0c0.7581,0 1.3685,0.64593 1.3685,1.4483l0,1.5517l-52,0l0,-1.5517c0,-0.80234 0.6103,-1.4483 1.3684,-1.4483l0.0001,0z" fill="#141414" id="rect5685"/>
  <path d="m875.390015,12.228c-0.7581,0 -1.375,0.6664 -1.375,1.4688l0,0.09375c0,0.15713 0.051,0.29605 0.094,0.4375c0.178,-0.58086 0.6716,-1 1.2812,-1l49.25,0c0.611,0 1.1356,0.41721 1.3126,1c0.043,-0.14038 0.062,-0.28175 0.062,-0.4375l0,-0.09375c0,-0.80234 -0.6168,-1.4688 -1.375,-1.4688l-49.25,0l0.0002,0z" fill="#404040" id="rect5685-3"/>
  <path d="m874.090015,15.234l0,-1.5625c0,-0.15713 0.051,-0.29605 0.094,-0.4375c0.178,0.58086 0.6716,1 1.2812,1l49.25,0c0.611,0 1.1356,-0.41721 1.3126,-1c0.043,0.14038 0.062,0.28175 0.062,0.4375l0,1.5625l-50.625,0l-1.3748,0z" fill="#404040" id="rect5685-3-2"/>
 </g>
</svg>