<?xml version="1.0"?>
<svg width="450" height="900" xmlns="http://www.w3.org/2000/svg" xmlns:svg="http://www.w3.org/2000/svg" xmlns:xlink="http://www.w3.org/1999/xlink">
 <metadata id="metadata261">image/svg+xml</metadata>
 <defs>
  <linearGradient id="linearGradient6717">
   <stop id="stop6719" offset="0" stop-color="#ffffff"/>
   <stop id="stop6721" offset="1" stop-color="#ffffff" stop-opacity="0"/>
  </linearGradient>
  <defs>
   <rect height="600" id="SVGID_6_" width="800" x="0" y="0"/>
  </defs>
  <clipPath id="SVGID_7_">
   <use height="100%" id="use142" width="100%" x="0" xlink:href="#SVGID_6_" y="0"/>
  </clipPath>
  <defs>
   <rect height="600" id="SVGID_1_" width="800" x="0" y="0"/>
  </defs>
  <clipPath id="SVGID_2_">
   <use height="100%" id="use9" width="100%" x="0" xlink:href="#SVGID_1_" y="0"/>
  </clipPath>
  <mask id="id0">
   <linearGradient id="id1" x1="0.528206" x2="0.488994" y1="0.912468" y2="0.091041">
    <stop id="stop10" offset="0" stop-color="white"/>
    <stop id="stop12" offset="1" stop-color="white" stop-opacity="0"/>
   </linearGradient>
   <rect fill="url(#id1)" height="92.704697" id="rect14" width="43.354301" x="2003" y="2061"/>
  </mask>
  <mask id="id2">
   <linearGradient id="id3" x1="0.51476" x2="0.45526" y1="0.910633" y2="0.092337">
    <stop id="stop18" offset="0" stop-color="white"/>
    <stop id="stop20" offset="1" stop-color="white" stop-opacity="0"/>
   </linearGradient>
   <rect fill="url(#id3)" height="92.704697" id="rect22" width="28.4016" x="2005" y="1427"/>
  </mask>
  <mask id="id4">
   <linearGradient id="id5" x1="0.528206" x2="0.488994" y1="0.915057" y2="0.093737">
    <stop id="stop26" offset="0" stop-color="white"/>
    <stop id="stop28" offset="1" stop-color="white" stop-opacity="0"/>
   </linearGradient>
   <rect fill="url(#id5)" height="92.704697" id="rect30" width="43.354301" x="2003" y="2560"/>
  </mask>
  <mask id="id6">
   <linearGradient id="id7" x1="0.624001" x2="0.414142" y1="0.855189" y2="0.148428">
    <stop id="stop34" offset="0" stop-color="white"/>
    <stop id="stop36" offset="1" stop-color="white" stop-opacity="0"/>
   </linearGradient>
   <rect fill="url(#id7)" height="92.704697" id="rect38" width="19.7756" x="2003" y="2061"/>
  </mask>
  <mask id="id8">
   <linearGradient id="id9" x1="0.61277" x2="0.328097" y1="0.853571" y2="0.149399">
    <stop id="stop42" offset="0" stop-color="white"/>
    <stop id="stop44" offset="1" stop-color="white" stop-opacity="0"/>
   </linearGradient>
   <rect fill="url(#id9)" height="92.704697" id="rect46" width="14.5079" x="2005" y="1427"/>
  </mask>
  <mask id="id10">
   <linearGradient id="id11" x1="0.624001" x2="0.414142" y1="0.857777" y2="0.151017">
    <stop id="stop50" offset="0" stop-color="white"/>
    <stop id="stop52" offset="1" stop-color="white" stop-opacity="0"/>
   </linearGradient>
   <rect fill="url(#id11)" height="92.704697" id="rect54" width="19.7756" x="2003" y="2560"/>
  </mask>
  <mask id="id12">
   <linearGradient id="id13" x1="0.75709" x2="0.305332" y1="0.701917" y2="0.301771">
    <stop id="stop58" offset="0" stop-color="white"/>
    <stop id="stop60" offset="1" stop-color="white" stop-opacity="0"/>
   </linearGradient>
   <rect fill="url(#id13)" height="88.842499" id="rect62" width="12.0197" x="2003" y="2061"/>
  </mask>
  <mask id="id14">
   <linearGradient id="id15" x1="0.729885" x2="0.184233" y1="0.700791" y2="0.30222">
    <stop id="stop66" offset="0" stop-color="white"/>
    <stop id="stop68" offset="1" stop-color="white" stop-opacity="0"/>
   </linearGradient>
   <rect fill="url(#id15)" height="88.842499" id="rect70" width="9.93307" x="2005" y="1427"/>
  </mask>
  <mask id="id16">
   <linearGradient id="id17" x1="0.75709" x2="0.305332" y1="0.704619" y2="0.304471">
    <stop id="stop74" offset="0" stop-color="white"/>
    <stop id="stop76" offset="1" stop-color="white" stop-opacity="0"/>
   </linearGradient>
   <rect fill="url(#id17)" height="88.842499" id="rect78" width="12.0197" x="2003" y="2560"/>
  </mask>
  <mask id="id18">
   <linearGradient id="id19" x1="0.527745" x2="0.489455" y1="0.09068" y2="0.910444">
    <stop id="stop82" offset="0" stop-color="white"/>
    <stop id="stop84" offset="1" stop-color="white" stop-opacity="0"/>
   </linearGradient>
   <rect fill="url(#id19)" height="90.208702" id="rect86" width="43.354301" x="2003" y="1740"/>
  </mask>
  <mask id="id20">
   <linearGradient id="id21" x1="0.513703" x2="0.45596" y1="0.088572" y2="0.905123">
    <stop id="stop90" offset="0" stop-color="white"/>
    <stop id="stop92" offset="1" stop-color="white" stop-opacity="0"/>
   </linearGradient>
   <rect fill="url(#id21)" height="90.208702" id="rect94" width="28.4016" x="2005" y="1306"/>
  </mask>
  <mask id="id22">
   <linearGradient id="id23" x1="0.527745" x2="0.489455" y1="0.093223" y2="0.913066">
    <stop id="stop98" offset="0" stop-color="white"/>
    <stop id="stop100" offset="1" stop-color="white" stop-opacity="0"/>
   </linearGradient>
   <rect fill="url(#id23)" height="90.212601" id="rect102" width="43.354301" x="2003" y="2239"/>
  </mask>
  <mask id="id24">
   <linearGradient id="id25" x1="0.620967" x2="0.417181" y1="0.147768" y2="0.853354">
    <stop id="stop106" offset="0" stop-color="white"/>
    <stop id="stop108" offset="1" stop-color="white" stop-opacity="0"/>
   </linearGradient>
   <rect fill="url(#id25)" height="90.208702" id="rect110" width="19.7756" x="2003" y="1740"/>
  </mask>
  <mask id="id26">
   <linearGradient id="id27" x1="0.608634" x2="0.332226" y1="0.145441" y2="0.848255">
    <stop id="stop114" offset="0" stop-color="white"/>
    <stop id="stop116" offset="1" stop-color="white" stop-opacity="0"/>
   </linearGradient>
   <rect fill="url(#id27)" height="90.208702" id="rect118" width="14.5079" x="2005" y="1306"/>
  </mask>
  <mask id="id28">
   <linearGradient id="id29" x1="0.620967" x2="0.417181" y1="0.150424" y2="0.855867">
    <stop id="stop122-0" offset="0" stop-color="white"/>
    <stop id="stop124-7" offset="1" stop-color="white" stop-opacity="0"/>
   </linearGradient>
   <rect fill="url(#id29)" height="90.212601" id="rect126" width="19.7756" x="2003" y="2239"/>
  </mask>
  <mask id="id30">
   <linearGradient id="id31" x1="0.750435" x2="0.311988" y1="0.299375" y2="0.69858">
    <stop id="stop130-2" offset="0" stop-color="white"/>
    <stop id="stop132-9" offset="1" stop-color="white" stop-opacity="0"/>
   </linearGradient>
   <rect fill="url(#id31)" height="86.346497" id="rect134" width="12.0197" x="2003" y="1744"/>
  </mask>
  <mask id="id32">
   <linearGradient id="id33" x1="0.721831" x2="0.192287" y1="0.296248" y2="0.693832">
    <stop id="stop138" offset="0" stop-color="white"/>
    <stop id="stop140" offset="1" stop-color="white" stop-opacity="0"/>
   </linearGradient>
   <rect fill="url(#id33)" height="86.346497" id="rect142" width="9.93307" x="2005" y="1310"/>
  </mask>
  <mask id="id34">
   <linearGradient id="id35" x1="0.750435" x2="0.311988" y1="0.302156" y2="0.701361">
    <stop id="stop146" offset="0" stop-color="white"/>
    <stop id="stop148" offset="1" stop-color="white" stop-opacity="0"/>
   </linearGradient>
   <rect fill="url(#id35)" height="86.346497" id="rect150" width="12.0197" x="2003" y="2243"/>
  </mask>
  <mask id="id36">
   <linearGradient id="id37" x1="0.473742" x2="0.516884" y1="0.912145" y2="0.091473">
    <stop id="stop154" offset="0" stop-color="white"/>
    <stop id="stop156" offset="1" stop-color="white" stop-opacity="0"/>
   </linearGradient>
   <rect fill="url(#id37)" height="92.704697" id="rect158-1" width="39.409401" x="5031" y="2061"/>
  </mask>
  <mask id="id38">
   <linearGradient id="id39" x1="0.378553" x2="0.604265" y1="0.854865" y2="0.148752">
    <stop id="stop162" offset="0" stop-color="white"/>
    <stop id="stop164" offset="1" stop-color="white" stop-opacity="0"/>
   </linearGradient>
   <rect fill="url(#id39)" height="92.704697" id="rect166" width="18.385799" x="5052" y="2061"/>
  </mask>
  <mask id="id40">
   <linearGradient id="id41" x1="0.242303" x2="0.714776" y1="0.701692" y2="0.301996">
    <stop id="stop170" offset="0" stop-color="white"/>
    <stop id="stop172" offset="1" stop-color="white" stop-opacity="0"/>
   </linearGradient>
   <rect fill="url(#id41)" height="88.842499" id="rect174" width="11.4724" x="5059" y="2061"/>
  </mask>
  <mask id="id42">
   <linearGradient id="id43" x1="0.474511" x2="0.516377" y1="0.091122" y2="0.910001">
    <stop id="stop178" offset="0" stop-color="white"/>
    <stop id="stop180" offset="1" stop-color="white" stop-opacity="0"/>
   </linearGradient>
   <rect fill="url(#id43)" height="90.208702" id="rect182" width="39.409401" x="5031" y="1740"/>
  </mask>
  <mask id="id44">
   <linearGradient id="id45" x1="0.381816" x2="0.600996" y1="0.148101" y2="0.85291">
    <stop id="stop186" offset="0" stop-color="white"/>
    <stop id="stop188" offset="1" stop-color="white" stop-opacity="0"/>
   </linearGradient>
   <rect fill="url(#id45)" height="90.208702" id="rect190" width="18.385799" x="5052" y="1740"/>
  </mask>
  <mask id="id46">
   <linearGradient id="id47" x1="0.249285" x2="0.707794" y1="0.299607" y2="0.698349">
    <stop id="stop194" offset="0" stop-color="white"/>
    <stop id="stop196" offset="1" stop-color="white" stop-opacity="0"/>
   </linearGradient>
   <rect fill="url(#id47)" height="86.346497" id="rect198" width="11.4724" x="5059" y="1744"/>
  </mask>
  <defs>
   <path d="m548,521.5c0,9.665 7.835,17.5 17.5,17.5c9.665,0 17.5,-7.835 17.5,-17.5c0,-9.665 -7.835,-17.5 -17.5,-17.5c-9.665,0 -17.5,7.835 -17.5,17.5" id="SVGID_3_"/>
  </defs>
  <clipPath id="SVGID_4_">
   <use height="100%" id="use117" width="100%" x="0" xlink:href="#SVGID_3_" y="0"/>
  </clipPath>
  <linearGradient id="SVGID_5_" x1="0.633366" x2="0.365369" y1="0.732033" y2="0.267847">
   <stop id="stop120" offset="0" stop-color="#1D1D1F"/>
   <stop id="stop122" offset="0.0746" stop-color="#28292C"/>
   <stop id="stop124" offset="0.2372" stop-color="#3D3F43"/>
   <stop id="stop126" offset="0.34" stop-color="#44474B"/>
   <stop id="stop128" offset="0.635" stop-color="#44474B"/>
   <stop id="stop130" offset="0.7664" stop-color="#393B3F"/>
   <stop id="stop132" offset="1" stop-color="#1D1D1F"/>
  </linearGradient>
  <linearGradient id="linearGradient6723" x1="0.402243" x2="0.458119" xlink:href="#linearGradient6717" y1="0" y2="0.646321"/>
 </defs>
 <g class="layer">
  <title>Layer 1</title>
  <path clip-path="url(#SVGID_2_)" d="m673.165,197.959l0,29.681c0,0.53 0.382,0.959 0.851,0.959l1.134,0c0.47,0 0.851,-0.429 0.851,-0.959l0,-29.681c0,-0.53 -0.381,-0.96 -0.851,-0.96l-1.134,0c-0.469,0.001 -0.851,0.431 -0.851,0.96" fill="#b6b4ba" id="path95" transform="matrix(1.9454647,0,0,1.9454647,-876.13399,-200.38286)"/>
  <rect clip-path="url(#SVGID_2_)" fill="#bcbcbc" height="7.844" id="rect97" transform="matrix(1.9454647,0,0,1.9454647,-876.13399,-200.38286)" width="3" x="671" y="509"/>
  <rect clip-path="url(#SVGID_2_)" fill="#bcbcbc" height="7.844" id="rect99" transform="matrix(1.9454647,0,0,1.9454647,-876.13399,-200.38286)" width="3" x="671" y="135"/>
  <rect clip-path="url(#SVGID_2_)" fill="#c4c2c7" height="7.844" id="rect101" transform="matrix(1.9454647,0,0,1.9454647,-876.13399,-200.38286)" width="3" x="671" y="511"/>
  <rect clip-path="url(#SVGID_2_)" fill="#c4c2c7" height="7.844" id="rect103" transform="matrix(1.9454647,0,0,1.9454647,-876.13399,-200.38286)" width="3" x="671" y="137"/>
  <path clip-path="url(#SVGID_2_)" d="m641.603,103l-152.775,0c-17.579,0 -31.828,14.323 -31.828,31.991l0,383.892c0,17.668 14.249,31.991 31.828,31.991l152.774,0c17.578,0 31.828,-14.323 32.397,-31.991l0,-383.892c-0.568,-17.668 -14.818,-31.991 -32.396,-31.991m27.151,413.534c0,15.901 -12.825,28.792 -28.646,28.792l-149.591,0c-15.82,0 -28.646,-12.891 -28.646,-28.792l0,-380.693c0,-15.901 12.825,-28.792 28.646,-28.792l149.592,0c15.82,0 28.646,12.891 28.646,28.792l0,380.693l-0.001,0z" fill="#555753" id="path105" transform="matrix(1.9454647,0,0,1.9454647,-876.13399,-200.38286)"/>
  <path clip-path="url(#SVGID_2_)" d="m639.819,547.955l-149.535,0c-16.596,0 -30.048,-13.453 -30.048,-30.048l0,-381.859c0,-16.595 13.452,-30.048 30.048,-30.048l149.535,0c17.221,0 31.181,13.961 31.181,31.181l0,379.593c0,17.221 -13.96,31.181 -31.181,31.181" fill="#080808" id="path107" transform="matrix(1.9454647,0,0,1.9454647,-876.13399,-200.38286)"/>
  <polygon clip-path="url(#SVGID_4_)" fill="url(#SVGID_5_)" id="polygon134" points="532.845,512.75 574.25,488.845 598.155,530.25 556.75,554.155 " transform="matrix(1.9454647,0,0,1.9454647,-876.13399,-200.38286)"/>
  <path clip-path="url(#SVGID_7_)" d="m581,521.5c0,8.56 -6.94,15.5 -15.5,15.5c-8.561,0 -15.5,-6.94 -15.5,-15.5c0,-8.56 6.939,-15.5 15.5,-15.5c8.56,0 15.5,6.94 15.5,15.5" fill="#080808" id="path144" transform="matrix(1.9454647,0,0,1.9454647,-876.13399,-200.38286)"/>
  <path clip-path="url(#SVGID_7_)" d="m456,160.22l0,17.266c0,0.53 0.43,0.96 0.96,0.96l1.28,0c0.529,0 0.96,-0.43 0.96,-0.96l0,-17.266c0,-0.53 -0.431,-0.96 -0.96,-0.96l-1.28,0c-0.53,0 -0.96,0.429 -0.96,0.96" fill="#b6b4ba" id="path150" transform="matrix(1.9454647,0,0,1.9454647,-876.13399,-200.38286)"/>
  <path clip-path="url(#SVGID_7_)" d="m456,199.72l0,30.809c0,0.53 0.43,0.96 0.96,0.96l1.28,0c0.529,0 0.96,-0.43 0.96,-0.96l0,-30.809c0,-0.53 -0.431,-0.96 -0.96,-0.96l-1.28,0c-0.53,0 -0.96,0.429 -0.96,0.96" fill="#b6b4ba" id="path152" transform="matrix(1.9454647,0,0,1.9454647,-876.13399,-200.38286)"/>
  <path clip-path="url(#SVGID_7_)" d="m456,240.348l0,30.809c0,0.53 0.43,0.96 0.96,0.96l1.28,0c0.529,0 0.96,-0.43 0.96,-0.96l0,-30.809c0,-0.53 -0.431,-0.96 -0.96,-0.96l-1.28,0c-0.53,0 -0.96,0.43 -0.96,0.96" fill="#b6b4ba" id="path154" transform="matrix(1.9454647,0,0,1.9454647,-876.13399,-200.38286)"/>
  <rect clip-path="url(#SVGID_7_)" fill="#c4c2c7" height="7.844" id="rect156" transform="matrix(1.9454647,0,0,1.9454647,-876.13399,-200.38286)" width="3" x="457" y="511"/>
  <rect clip-path="url(#SVGID_7_)" fill="#c4c2c7" height="7.844" id="rect158" transform="matrix(1.9454647,0,0,1.9454647,-876.13399,-200.38286)" width="3" x="671" y="511"/>
  <rect clip-path="url(#SVGID_7_)" fill="#c4c2c7" height="7.844" id="rect160" transform="matrix(1.9454647,0,0,1.9454647,-876.13399,-200.38286)" width="3" x="457" y="137"/>
  <rect clip-path="url(#SVGID_7_)" fill="#c4c2c7" height="7.844" id="rect162" transform="matrix(1.9454647,0,0,1.9454647,-876.13399,-200.38286)" width="3" x="671" y="137"/>
  <rect fill="none" fill-rule="nonzero" height="30.930672" id="rect6433" opacity="0.58" rx="8.483743" ry="8.532562" stroke="#d3d7cf" stroke-dashoffset="0" stroke-linejoin="round" stroke-miterlimit="4" stroke-width="2.005383" width="29.693233" x="209.17967" y="798.71167"/>
  <path d="m190.89389,807.08429c-3.8275,15.32776 6.44715,40.96319 32.81217,40.96319c26.36503,0 37.45103,-25.01173 33.70953,-40.85515c-27.73123,6.59906 -38.67657,6.53803 -66.5217,-0.10804z" fill="#ffffff" fill-rule="nonzero" id="path6552" marker-end="none" marker-mid="none" marker-start="none" opacity="0.2" stroke-dashoffset="0" stroke-linejoin="round" stroke-miterlimit="4" stroke-width="2"/>
  <rect fill="#555753" fill-rule="nonzero" height="653.40961" id="rect7083" stroke-dashoffset="0" stroke-linejoin="round" stroke-miterlimit="4" stroke-width="2.64" width="374.84091" x="36.755836" y="107.40537"/>
  <path d="m185.40221,6.322264l243.5957,667.271486l0,-607.450784c0,-33.140669 -26.76,-59.820702 -60,-59.820702l-183.5957,0z" fill="url(#linearGradient6723)" fill-rule="nonzero" id="rect6564" marker-end="none" marker-mid="none" marker-start="none" opacity="0.402" stroke-dashoffset="0" stroke-linejoin="round" stroke-miterlimit="4" stroke-width="2"/>
  <path clip-path="url(#SVGID_7_)" d="m568,118.009c0,1.652 -1.343,2.991 -3,2.991c-1.657,0 -3,-1.339 -3,-2.991c0,-1.652 1.343,-2.991 3,-2.991c1.657,0 3,1.338 3,2.991" fill="#2e3436" id="path146" stroke="#000000" transform="matrix(2.105753,0,0,2.105753,-966.6969,-219.29832)"/>
  <path clip-path="url(#SVGID_7_)" d="m580.462,132.99l-29.938,0c-1.329,0 -2.406,-1.077 -2.406,-2.406c0,-1.329 1.077,-2.406 2.406,-2.406l29.938,0c1.329,0 2.406,1.077 2.406,2.406c0,1.329 -1.077,2.406 -2.406,2.406" fill="#2e3436" id="path148" stroke="#000000" transform="matrix(2.225185,0,0,2.225185,-1034.3139,-236.90985)"/>
 </g>
</svg>