<?xml version="1.0" encoding="UTF-8" standalone="no"?>
<!-- Generator: Adobe Illustrator 14.0.0, SVG Export Plug-In . SVG Version: 6.00 Build 43363)  -->

<svg
   xmlns:dc="http://purl.org/dc/elements/1.1/"
   xmlns:cc="http://creativecommons.org/ns#"
   xmlns:rdf="http://www.w3.org/1999/02/22-rdf-syntax-ns#"
   xmlns:svg="http://www.w3.org/2000/svg"
   xmlns="http://www.w3.org/2000/svg"
   xmlns:xlink="http://www.w3.org/1999/xlink"
   xmlns:sodipodi="http://sodipodi.sourceforge.net/DTD/sodipodi-0.dtd"
   xmlns:inkscape="http://www.inkscape.org/namespaces/inkscape"
   version="1.1"
   id="Ebene_1"
   x="0px"
   y="0px"
   width="450"
   height="900"
   viewBox="0 0 450 900"
   enable-background="new 0 0 800 600"
   xml:space="preserve"
   inkscape:version="0.91 r13725"
   sodipodi:docname="phone-mockup.svg"
   inkscape:export-filename="phone-mockup2.png"
   inkscape:export-xdpi="90"
   inkscape:export-ydpi="90"><sodipodi:namedview
     pagecolor="#ffffff"
     bordercolor="#666666"
     borderopacity="1"
     objecttolerance="10"
     gridtolerance="10"
     guidetolerance="10"
     inkscape:pageopacity="0"
     inkscape:pageshadow="2"
     inkscape:window-width="1362"
     inkscape:window-height="729"
     id="namedview257"
     showgrid="false"
     inkscape:zoom="0.25"
     inkscape:cx="-166.57009"
     inkscape:cy="165.47328"
     inkscape:window-x="0"
     inkscape:window-y="37"
     inkscape:window-maximized="0"
     inkscape:current-layer="Ebene_1"
     showguides="true"
     inkscape:guide-bbox="true"
     fit-margin-top="0"
     fit-margin-left="0"
     fit-margin-right="0"
     fit-margin-bottom="0"
     inkscape:snap-bbox="true"
     inkscape:bbox-paths="true"
     inkscape:snap-global="true"
     inkscape:snap-to-guides="true"
     inkscape:snap-grids="true"
     inkscape:bbox-nodes="true"><sodipodi:guide
       id="guide6893"
       orientation="-653.40962,0"
       position="36.755828,139.18501" /><sodipodi:guide
       id="guide6895"
       orientation="0,374.84092"
       position="36.755828,792.59463" /><sodipodi:guide
       id="guide6897"
       orientation="653.40962,0"
       position="411.59675,792.59463" /><sodipodi:guide
       id="guide6899"
       orientation="0,-374.84092"
       position="411.59675,139.18501" /></sodipodi:namedview><metadata
     id="metadata261"><rdf:RDF><cc:Work
         rdf:about=""><dc:format>image/svg+xml</dc:format><dc:type
           rdf:resource="http://purl.org/dc/dcmitype/StillImage" /><dc:title /></cc:Work></rdf:RDF></metadata><defs
     id="defs259"><linearGradient
       id="linearGradient6717"
       inkscape:collect="always"><stop
         id="stop6719"
         offset="0"
         style="stop-color:#ffffff;stop-opacity:1;" /><stop
         id="stop6721"
         offset="1"
         style="stop-color:#ffffff;stop-opacity:0;" /></linearGradient><defs
       id="defs138"><rect
         y="0"
         x="0"
         id="SVGID_6_"
         width="800"
         height="600" /></defs><clipPath
       id="SVGID_7_"><use
         height="100%"
         width="100%"
         y="0"
         x="0"
         style="overflow:visible"
         xlink:href="#SVGID_6_"
         overflow="visible"
         id="use142" /></clipPath><defs
       id="defs5"><rect
         y="0"
         x="0"
         id="SVGID_1_"
         width="800"
         height="600" /></defs><clipPath
       id="SVGID_2_"><use
         height="100%"
         width="100%"
         y="0"
         x="0"
         style="overflow:visible"
         xlink:href="#SVGID_1_"
         overflow="visible"
         id="use9" /></clipPath><mask
       id="id0"><linearGradient
         y2="2069.4399"
         x2="2024.2"
         y1="2145.5901"
         x1="2025.9"
         gradientUnits="userSpaceOnUse"
         id="id1"><stop
           id="stop10"
           style="stop-opacity:1; stop-color:white"
           offset="0" /><stop
           id="stop12"
           style="stop-opacity:0; stop-color:white"
           offset="1" /></linearGradient><rect
         id="rect14"
         height="92.704697"
         width="43.354301"
         y="2061"
         x="2003"
         style="fill:url(#id1)" /></mask><mask
       id="id2"><linearGradient
         y2="1435.5601"
         x2="2017.9301"
         y1="1511.42"
         x1="2019.62"
         gradientUnits="userSpaceOnUse"
         id="id3"><stop
           id="stop18"
           style="stop-opacity:1; stop-color:white"
           offset="0" /><stop
           id="stop20"
           style="stop-opacity:0; stop-color:white"
           offset="1" /></linearGradient><rect
         id="rect22"
         height="92.704697"
         width="28.4016"
         y="1427"
         x="2005"
         style="fill:url(#id3)" /></mask><mask
       id="id4"><linearGradient
         y2="2568.6899"
         x2="2024.2"
         y1="2644.8301"
         x1="2025.9"
         gradientUnits="userSpaceOnUse"
         id="id5"><stop
           id="stop26"
           style="stop-opacity:1; stop-color:white"
           offset="0" /><stop
           id="stop28"
           style="stop-opacity:0; stop-color:white"
           offset="1" /></linearGradient><rect
         id="rect30"
         height="92.704697"
         width="43.354301"
         y="2560"
         x="2003"
         style="fill:url(#id5)" /></mask><mask
       id="id6"><linearGradient
         y2="2074.76"
         x2="2011.1899"
         y1="2140.28"
         x1="2015.34"
         gradientUnits="userSpaceOnUse"
         id="id7"><stop
           id="stop34"
           style="stop-opacity:1; stop-color:white"
           offset="0" /><stop
           id="stop36"
           style="stop-opacity:0; stop-color:white"
           offset="1" /></linearGradient><rect
         id="rect38"
         height="92.704697"
         width="19.7756"
         y="2061"
         x="2003"
         style="fill:url(#id7)" /></mask><mask
       id="id8"><linearGradient
         y2="1440.85"
         x2="2009.76"
         y1="1506.13"
         x1="2013.89"
         gradientUnits="userSpaceOnUse"
         id="id9"><stop
           id="stop42"
           style="stop-opacity:1; stop-color:white"
           offset="0" /><stop
           id="stop44"
           style="stop-opacity:0; stop-color:white"
           offset="1" /></linearGradient><rect
         id="rect46"
         height="92.704697"
         width="14.5079"
         y="1427"
         x="2005"
         style="fill:url(#id9)" /></mask><mask
       id="id10"><linearGradient
         y2="2574"
         x2="2011.1899"
         y1="2639.52"
         x1="2015.34"
         gradientUnits="userSpaceOnUse"
         id="id11"><stop
           id="stop50"
           style="stop-opacity:1; stop-color:white"
           offset="0" /><stop
           id="stop52"
           style="stop-opacity:0; stop-color:white"
           offset="1" /></linearGradient><rect
         id="rect54"
         height="92.704697"
         width="19.7756"
         y="2560"
         x="2003"
         style="fill:url(#id11)" /></mask><mask
       id="id12"><linearGradient
         y2="2087.8101"
         x2="2006.67"
         y1="2123.3601"
         x1="2012.1"
         gradientUnits="userSpaceOnUse"
         id="id13"><stop
           id="stop58"
           style="stop-opacity:1; stop-color:white"
           offset="0" /><stop
           id="stop60"
           style="stop-opacity:0; stop-color:white"
           offset="1" /></linearGradient><rect
         id="rect62"
         height="88.842499"
         width="12.0197"
         y="2061"
         x="2003"
         style="fill:url(#id13)" /></mask><mask
       id="id14"><linearGradient
         y2="1453.85"
         x2="2006.83"
         y1="1489.26"
         x1="2012.25"
         gradientUnits="userSpaceOnUse"
         id="id15"><stop
           id="stop66"
           style="stop-opacity:1; stop-color:white"
           offset="0" /><stop
           id="stop68"
           style="stop-opacity:0; stop-color:white"
           offset="1" /></linearGradient><rect
         id="rect70"
         height="88.842499"
         width="9.9330702"
         y="1427"
         x="2005"
         style="fill:url(#id15)" /></mask><mask
       id="id16"><linearGradient
         y2="2587.05"
         x2="2006.67"
         y1="2622.6001"
         x1="2012.1"
         gradientUnits="userSpaceOnUse"
         id="id17"><stop
           id="stop74"
           style="stop-opacity:1; stop-color:white"
           offset="0" /><stop
           id="stop76"
           style="stop-opacity:0; stop-color:white"
           offset="1" /></linearGradient><rect
         id="rect78"
         height="88.842499"
         width="12.0197"
         y="2560"
         x="2003"
         style="fill:url(#id17)" /></mask><mask
       id="id18"><linearGradient
         y2="1822.13"
         x2="2024.22"
         y1="1748.1801"
         x1="2025.88"
         gradientUnits="userSpaceOnUse"
         id="id19"><stop
           id="stop82"
           style="stop-opacity:1; stop-color:white"
           offset="0" /><stop
           id="stop84"
           style="stop-opacity:0; stop-color:white"
           offset="1" /></linearGradient><rect
         id="rect86"
         height="90.208702"
         width="43.354301"
         y="1740"
         x="2003"
         style="fill:url(#id19)" /></mask><mask
       id="id20"><linearGradient
         y2="1387.65"
         x2="2017.95"
         y1="1313.99"
         x1="2019.59"
         gradientUnits="userSpaceOnUse"
         id="id21"><stop
           id="stop90"
           style="stop-opacity:1; stop-color:white"
           offset="0" /><stop
           id="stop92"
           style="stop-opacity:0; stop-color:white"
           offset="1" /></linearGradient><rect
         id="rect94"
         height="90.208702"
         width="28.4016"
         y="1306"
         x="2005"
         style="fill:url(#id21)" /></mask><mask
       id="id22"><linearGradient
         y2="2321.3701"
         x2="2024.22"
         y1="2247.4099"
         x1="2025.88"
         gradientUnits="userSpaceOnUse"
         id="id23"><stop
           id="stop98"
           style="stop-opacity:1; stop-color:white"
           offset="0" /><stop
           id="stop100"
           style="stop-opacity:0; stop-color:white"
           offset="1" /></linearGradient><rect
         id="rect102"
         height="90.212601"
         width="43.354301"
         y="2239"
         x="2003"
         style="fill:url(#id23)" /></mask><mask
       id="id24"><linearGradient
         y2="1816.98"
         x2="2011.25"
         y1="1753.33"
         x1="2015.28"
         gradientUnits="userSpaceOnUse"
         id="id25"><stop
           id="stop106"
           style="stop-opacity:1; stop-color:white"
           offset="0" /><stop
           id="stop108"
           style="stop-opacity:0; stop-color:white"
           offset="1" /></linearGradient><rect
         id="rect110"
         height="90.208702"
         width="19.7756"
         y="1740"
         x="2003"
         style="fill:url(#id25)" /></mask><mask
       id="id26"><linearGradient
         y2="1382.52"
         x2="2009.8199"
         y1="1319.12"
         x1="2013.83"
         gradientUnits="userSpaceOnUse"
         id="id27"><stop
           id="stop114"
           style="stop-opacity:1; stop-color:white"
           offset="0" /><stop
           id="stop116"
           style="stop-opacity:0; stop-color:white"
           offset="1" /></linearGradient><rect
         id="rect118"
         height="90.208702"
         width="14.5079"
         y="1306"
         x="2005"
         style="fill:url(#id27)" /></mask><mask
       id="id28"><linearGradient
         y2="2316.21"
         x2="2011.25"
         y1="2252.5701"
         x1="2015.28"
         gradientUnits="userSpaceOnUse"
         id="id29"><stop
           id="stop122-0"
           style="stop-opacity:1; stop-color:white"
           offset="0" /><stop
           id="stop124-7"
           style="stop-opacity:0; stop-color:white"
           offset="1" /></linearGradient><rect
         id="rect126"
         height="90.212601"
         width="19.7756"
         y="2239"
         x="2003"
         style="fill:url(#id29)" /></mask><mask
       id="id30"><linearGradient
         y2="1804.3199"
         x2="2006.75"
         y1="1769.85"
         x1="2012.02"
         gradientUnits="userSpaceOnUse"
         id="id31"><stop
           id="stop130-2"
           style="stop-opacity:1; stop-color:white"
           offset="0" /><stop
           id="stop132-9"
           style="stop-opacity:0; stop-color:white"
           offset="1" /></linearGradient><rect
         id="rect134"
         height="86.346497"
         width="12.0197"
         y="1744"
         x="2003"
         style="fill:url(#id31)" /></mask><mask
       id="id32"><linearGradient
         y2="1369.91"
         x2="2006.91"
         y1="1335.58"
         x1="2012.17"
         gradientUnits="userSpaceOnUse"
         id="id33"><stop
           id="stop138"
           style="stop-opacity:1; stop-color:white"
           offset="0" /><stop
           id="stop140"
           style="stop-opacity:0; stop-color:white"
           offset="1" /></linearGradient><rect
         id="rect142"
         height="86.346497"
         width="9.9330702"
         y="1310"
         x="2005"
         style="fill:url(#id33)" /></mask><mask
       id="id34"><linearGradient
         y2="2303.5601"
         x2="2006.75"
         y1="2269.0901"
         x1="2012.02"
         gradientUnits="userSpaceOnUse"
         id="id35"><stop
           id="stop146"
           style="stop-opacity:1; stop-color:white"
           offset="0" /><stop
           id="stop148"
           style="stop-opacity:0; stop-color:white"
           offset="1" /></linearGradient><rect
         id="rect150"
         height="86.346497"
         width="12.0197"
         y="2243"
         x="2003"
         style="fill:url(#id35)" /></mask><mask
       id="id36"><linearGradient
         y2="2069.48"
         x2="5051.3701"
         y1="2145.5601"
         x1="5049.6699"
         gradientUnits="userSpaceOnUse"
         id="id37"><stop
           id="stop154"
           style="stop-opacity:1; stop-color:white"
           offset="0" /><stop
           id="stop156"
           style="stop-opacity:0; stop-color:white"
           offset="1" /></linearGradient><rect
         id="rect158-1"
         height="92.704697"
         width="39.409401"
         y="2061"
         x="5031"
         style="fill:url(#id37)" /></mask><mask
       id="id38"><linearGradient
         y2="2074.79"
         x2="5063.1099"
         y1="2140.25"
         x1="5058.96"
         gradientUnits="userSpaceOnUse"
         id="id39"><stop
           id="stop162"
           style="stop-opacity:1; stop-color:white"
           offset="0" /><stop
           id="stop164"
           style="stop-opacity:0; stop-color:white"
           offset="1" /></linearGradient><rect
         id="rect166"
         height="92.704697"
         width="18.385799"
         y="2061"
         x="5052"
         style="fill:url(#id39)" /></mask><mask
       id="id40"><linearGradient
         y2="2087.8301"
         x2="5067.2002"
         y1="2123.3401"
         x1="5061.7798"
         gradientUnits="userSpaceOnUse"
         id="id41"><stop
           id="stop170"
           style="stop-opacity:1; stop-color:white"
           offset="0" /><stop
           id="stop172"
           style="stop-opacity:0; stop-color:white"
           offset="1" /></linearGradient><rect
         id="rect174"
         height="88.842499"
         width="11.4724"
         y="2061"
         x="5059"
         style="fill:url(#id41)" /></mask><mask
       id="id42"><linearGradient
         y2="1822.09"
         x2="5051.3501"
         y1="1748.22"
         x1="5049.7002"
         gradientUnits="userSpaceOnUse"
         id="id43"><stop
           id="stop178"
           style="stop-opacity:1; stop-color:white"
           offset="0" /><stop
           id="stop180"
           style="stop-opacity:0; stop-color:white"
           offset="1" /></linearGradient><rect
         id="rect182"
         height="90.208702"
         width="39.409401"
         y="1740"
         x="5031"
         style="fill:url(#id43)" /></mask><mask
       id="id44"><linearGradient
         y2="1816.9399"
         x2="5063.0498"
         y1="1753.36"
         x1="5059.02"
         gradientUnits="userSpaceOnUse"
         id="id45"><stop
           id="stop186"
           style="stop-opacity:1; stop-color:white"
           offset="0" /><stop
           id="stop188"
           style="stop-opacity:0; stop-color:white"
           offset="1" /></linearGradient><rect
         id="rect190"
         height="90.208702"
         width="18.385799"
         y="1740"
         x="5052"
         style="fill:url(#id45)" /></mask><mask
       id="id46"><linearGradient
         y2="1804.3"
         x2="5067.1201"
         y1="1769.87"
         x1="5061.8599"
         gradientUnits="userSpaceOnUse"
         id="id47"><stop
           id="stop194"
           style="stop-opacity:1; stop-color:white"
           offset="0" /><stop
           id="stop196"
           style="stop-opacity:0; stop-color:white"
           offset="1" /></linearGradient><rect
         id="rect198"
         height="86.346497"
         width="11.4724"
         y="1744"
         x="5059"
         style="fill:url(#id47)" /></mask><defs
       id="defs113"><path
         id="SVGID_3_"
         d="m 548,521.5 c 0,9.665 7.835,17.5 17.5,17.5 9.665,0 17.5,-7.835 17.5,-17.5 0,-9.665 -7.835,-17.5 -17.5,-17.5 -9.665,0 -17.5,7.835 -17.5,17.5"
         inkscape:connector-curvature="0" /></defs><clipPath
       id="SVGID_4_"><use
         xlink:href="#SVGID_3_"
         overflow="visible"
         id="use117"
         style="overflow:visible"
         x="0"
         y="0"
         width="100%"
         height="100%" /></clipPath><linearGradient
       id="SVGID_5_"
       gradientUnits="userSpaceOnUse"
       x1="0"
       y1="600.00098"
       x2="1"
       y2="600.00098"
       gradientTransform="matrix(-17.5029,-30.316,-30.316,17.5029,18763.84,-9965.1025)"><stop
         offset="0"
         style="stop-color:#1D1D1F"
         id="stop120" /><stop
         offset="0.0746"
         style="stop-color:#28292C"
         id="stop122" /><stop
         offset="0.2372"
         style="stop-color:#3D3F43"
         id="stop124" /><stop
         offset="0.34"
         style="stop-color:#44474B"
         id="stop126" /><stop
         offset="0.635"
         style="stop-color:#44474B"
         id="stop128" /><stop
         offset="0.7664"
         style="stop-color:#393B3F"
         id="stop130" /><stop
         offset="1"
         style="stop-color:#1D1D1F"
         id="stop132" /></linearGradient><linearGradient
       gradientUnits="userSpaceOnUse"
       y2="437.59375"
       x2="296.99792"
       y1="6.3222642"
       x1="283.38687"
       id="linearGradient6723"
       xlink:href="#linearGradient6717"
       inkscape:collect="always" /><filter
       height="2.6817989"
       y="-0.84089944"
       width="1.0664208"
       x="-0.033210412"
       id="filter6881"
       style="color-interpolation-filters:sRGB"
       inkscape:collect="always"><feGaussianBlur
         id="feGaussianBlur6883"
         stdDeviation="5.8417652"
         inkscape:collect="always" /></filter></defs><rect
     transform="matrix(0.96200181,0,0,1.0212259,10.920192,-18.484279)"
     ry="8.3364525"
     rx="14.825542"
     y="862.50049"
     x="11.173923"
     height="16.672905"
     width="422.16388"
     id="rect6725"
     style="color:#000000;display:inline;overflow:visible;visibility:visible;opacity:0.95;fill:#000000;fill-opacity:1;fill-rule:nonzero;stroke:none;stroke-width:2.6400001;stroke-linecap:butt;stroke-linejoin:round;stroke-miterlimit:4;stroke-dasharray:none;stroke-dashoffset:0;stroke-opacity:1;marker:none;marker-start:none;marker-mid:none;marker-end:none;filter:url(#filter6881);enable-background:accumulate" /><path
     transform="matrix(1.9454647,0,0,1.9454647,-876.13399,-200.38286)"
     clip-path="url(#SVGID_2_)"
     d="m 673.165,197.959 0,29.681 c 0,0.53 0.382,0.959 0.851,0.959 l 1.134,0 c 0.47,0 0.851,-0.429 0.851,-0.959 l 0,-29.681 c 0,-0.53 -0.381,-0.96 -0.851,-0.96 l -1.134,0 c -0.469,0.001 -0.851,0.431 -0.851,0.96"
     id="path95"
     inkscape:connector-curvature="0"
     style="fill:#b6b4ba" /><rect
     transform="matrix(1.9454647,0,0,1.9454647,-876.13399,-200.38286)"
     x="671"
     y="509"
     clip-path="url(#SVGID_2_)"
     width="3"
     height="7.8439999"
     id="rect97"
     style="fill:#bcbcbc" /><rect
     transform="matrix(1.9454647,0,0,1.9454647,-876.13399,-200.38286)"
     x="671"
     y="135"
     clip-path="url(#SVGID_2_)"
     width="3"
     height="7.8439999"
     id="rect99"
     style="fill:#bcbcbc" /><rect
     transform="matrix(1.9454647,0,0,1.9454647,-876.13399,-200.38286)"
     x="671"
     y="511"
     clip-path="url(#SVGID_2_)"
     width="3"
     height="7.8439999"
     id="rect101"
     style="fill:#c4c2c7" /><rect
     transform="matrix(1.9454647,0,0,1.9454647,-876.13399,-200.38286)"
     x="671"
     y="137"
     clip-path="url(#SVGID_2_)"
     width="3"
     height="7.8439999"
     id="rect103"
     style="fill:#c4c2c7" /><path
     transform="matrix(1.9454647,0,0,1.9454647,-876.13399,-200.38286)"
     clip-path="url(#SVGID_2_)"
     d="m 641.603,103 -152.775,0 C 471.249,103 457,117.323 457,134.991 l 0,383.892 c 0,17.668 14.249,31.991 31.828,31.991 l 152.774,0 c 17.578,0 31.828,-14.323 32.397,-31.991 l 0,-383.892 C 673.431,117.323 659.181,103 641.603,103 m 27.151,413.534 c 0,15.901 -12.825,28.792 -28.646,28.792 l -149.591,0 c -15.82,0 -28.646,-12.891 -28.646,-28.792 l 0,-380.693 c 0,-15.901 12.825,-28.792 28.646,-28.792 l 149.592,0 c 15.82,0 28.646,12.891 28.646,28.792 l 0,380.693 z"
     id="path105"
     inkscape:connector-curvature="0"
     style="fill:#555753" /><path
     transform="matrix(1.9454647,0,0,1.9454647,-876.13399,-200.38286)"
     clip-path="url(#SVGID_2_)"
     d="m 639.819,547.955 -149.535,0 c -16.596,0 -30.048,-13.453 -30.048,-30.048 l 0,-381.859 c 0,-16.595 13.452,-30.048 30.048,-30.048 l 149.535,0 C 657.04,106 671,119.961 671,137.181 l 0,379.593 c 0,17.221 -13.96,31.181 -31.181,31.181"
     id="path107"
     inkscape:connector-curvature="0"
     style="fill:#080808" /><polygon
     transform="matrix(1.9454647,0,0,1.9454647,-876.13399,-200.38286)"
     clip-path="url(#SVGID_4_)"
     points="532.845,512.75 574.25,488.845 598.155,530.25 556.75,554.155 "
     id="polygon134"
     style="fill:url(#SVGID_5_)" /><path
     transform="matrix(1.9454647,0,0,1.9454647,-876.13399,-200.38286)"
     clip-path="url(#SVGID_7_)"
     d="m 581,521.5 c 0,8.56 -6.94,15.5 -15.5,15.5 -8.561,0 -15.5,-6.94 -15.5,-15.5 0,-8.56 6.939,-15.5 15.5,-15.5 8.56,0 15.5,6.94 15.5,15.5"
     id="path144"
     inkscape:connector-curvature="0"
     style="fill:#080808" /><path
     transform="matrix(1.9454647,0,0,1.9454647,-876.13399,-200.38286)"
     clip-path="url(#SVGID_7_)"
     d="m 456,160.22 0,17.266 c 0,0.53 0.43,0.96 0.96,0.96 l 1.28,0 c 0.529,0 0.96,-0.43 0.96,-0.96 l 0,-17.266 c 0,-0.53 -0.431,-0.96 -0.96,-0.96 l -1.28,0 c -0.53,0 -0.96,0.429 -0.96,0.96"
     id="path150"
     inkscape:connector-curvature="0"
     style="fill:#b6b4ba" /><path
     transform="matrix(1.9454647,0,0,1.9454647,-876.13399,-200.38286)"
     clip-path="url(#SVGID_7_)"
     d="m 456,199.72 0,30.809 c 0,0.53 0.43,0.96 0.96,0.96 l 1.28,0 c 0.529,0 0.96,-0.43 0.96,-0.96 l 0,-30.809 c 0,-0.53 -0.431,-0.96 -0.96,-0.96 l -1.28,0 c -0.53,0 -0.96,0.429 -0.96,0.96"
     id="path152"
     inkscape:connector-curvature="0"
     style="fill:#b6b4ba" /><path
     transform="matrix(1.9454647,0,0,1.9454647,-876.13399,-200.38286)"
     clip-path="url(#SVGID_7_)"
     d="m 456,240.348 0,30.809 c 0,0.53 0.43,0.96 0.96,0.96 l 1.28,0 c 0.529,0 0.96,-0.43 0.96,-0.96 l 0,-30.809 c 0,-0.53 -0.431,-0.96 -0.96,-0.96 l -1.28,0 c -0.53,0 -0.96,0.43 -0.96,0.96"
     id="path154"
     inkscape:connector-curvature="0"
     style="fill:#b6b4ba" /><rect
     transform="matrix(1.9454647,0,0,1.9454647,-876.13399,-200.38286)"
     x="457"
     y="511"
     clip-path="url(#SVGID_7_)"
     width="3"
     height="7.8439999"
     id="rect156"
     style="fill:#c4c2c7" /><rect
     transform="matrix(1.9454647,0,0,1.9454647,-876.13399,-200.38286)"
     x="671"
     y="511"
     clip-path="url(#SVGID_7_)"
     width="3"
     height="7.8439999"
     id="rect158"
     style="fill:#c4c2c7" /><rect
     transform="matrix(1.9454647,0,0,1.9454647,-876.13399,-200.38286)"
     x="457"
     y="137"
     clip-path="url(#SVGID_7_)"
     width="3"
     height="7.8439999"
     id="rect160"
     style="fill:#c4c2c7" /><rect
     transform="matrix(1.9454647,0,0,1.9454647,-876.13399,-200.38286)"
     x="671"
     y="137"
     clip-path="url(#SVGID_7_)"
     width="3"
     height="7.8439999"
     id="rect162"
     style="fill:#c4c2c7" /><rect
     ry="8.5325623"
     rx="8.4837427"
     y="798.71167"
     x="209.17967"
     height="30.930672"
     width="29.693233"
     id="rect6433"
     style="color:#000000;display:inline;overflow:visible;visibility:visible;opacity:0.58;fill:none;fill-opacity:1;fill-rule:nonzero;stroke:#d3d7cf;stroke-width:2.00538254;stroke-linecap:butt;stroke-linejoin:round;stroke-miterlimit:4;stroke-dasharray:none;stroke-dashoffset:0;stroke-opacity:1;marker:none;marker-start:none;marker-mid:none;marker-end:none;enable-background:accumulate" /><path
     sodipodi:nodetypes="czcc"
     inkscape:connector-curvature="0"
     id="path6552"
     d="m 190.89389,807.08429 c -3.8275,15.32776 6.44715,40.96319 32.81217,40.96319 26.36503,0 37.45103,-25.01173 33.70953,-40.85515 -27.73123,6.59906 -38.67657,6.53803 -66.5217,-0.10804 z"
     style="color:#000000;display:inline;overflow:visible;visibility:visible;opacity:0.2;fill:#ffffff;fill-opacity:1;fill-rule:nonzero;stroke:none;stroke-width:2;stroke-linecap:butt;stroke-linejoin:round;stroke-miterlimit:4;stroke-dasharray:none;stroke-dashoffset:0;stroke-opacity:1;marker:none;marker-start:none;marker-mid:none;marker-end:none;enable-background:accumulate" /><rect
       y="107.40537"
       x="36.755836"
       height="653.40961"
       width="374.84091"
       id="rect7083"
       style="color:#000000;display:inline;overflow:visible;visibility:visible;opacity:1;fill:#555753;fill-opacity:1;fill-rule:nonzero;stroke:none;stroke-width:2.6400001;stroke-linecap:butt;stroke-linejoin:round;stroke-miterlimit:4;stroke-dasharray:none;stroke-dashoffset:0;stroke-opacity:1;marker:none;marker-start:none;marker-mid:none;marker-end:none;enable-background:accumulate" /><path
     inkscape:connector-curvature="0"
     id="rect6564"
     d="m 185.40221,6.322264 243.5957,667.271486 0,-607.450784 c 0,-33.140669 -26.76,-59.820702 -60,-59.820702 l -183.5957,0 z"
     style="color:#000000;display:inline;overflow:visible;visibility:visible;opacity:0.40200004;fill:url(#linearGradient6723);fill-opacity:1;fill-rule:nonzero;stroke:none;stroke-width:2;stroke-linecap:butt;stroke-linejoin:round;stroke-miterlimit:4;stroke-dasharray:none;stroke-dashoffset:0;stroke-opacity:1;marker:none;marker-start:none;marker-mid:none;marker-end:none;enable-background:accumulate" /><path
     transform="matrix(2.105753,0,0,2.105753,-966.6969,-219.29832)"
     clip-path="url(#SVGID_7_)"
     d="m 568,118.009 c 0,1.652 -1.343,2.991 -3,2.991 -1.657,0 -3,-1.339 -3,-2.991 0,-1.652 1.343,-2.991 3,-2.991 1.657,0 3,1.338 3,2.991"
     id="path146"
     inkscape:connector-curvature="0"
     style="fill:#2e3436;stroke:#000000;stroke-opacity:1" /><path
     transform="matrix(2.225185,0,0,2.225185,-1034.3139,-236.90985)"
     clip-path="url(#SVGID_7_)"
     d="m 580.462,132.99 -29.938,0 c -1.329,0 -2.406,-1.077 -2.406,-2.406 0,-1.329 1.077,-2.406 2.406,-2.406 l 29.938,0 c 1.329,0 2.406,1.077 2.406,2.406 0,1.329 -1.077,2.406 -2.406,2.406"
     id="path148"
     inkscape:connector-curvature="0"
     style="fill:#2e3436;stroke:#000000" /></svg>
