<?xml version="1.0"?>
<svg width="707.42" height="398.84" xmlns="http://www.w3.org/2000/svg" xmlns:svg="http://www.w3.org/2000/svg" xmlns:xlink="http://www.w3.org/1999/xlink">
 <defs>
  <linearGradient id="linearGradient3967">
   <stop id="stop3969" offset="0" stop-color="#000000"/>
   <stop id="stop3971" offset="0.5" stop-color="#4e4e4e"/>
   <stop id="stop3973" offset="1" stop-color="#212121"/>
  </linearGradient>
  <linearGradient id="linearGradient3939">
   <stop id="stop3941" offset="0" stop-color="#cfcfcf" stop-opacity="0"/>
   <stop id="stop3945" offset="0.5" stop-color="#ffffff" stop-opacity="0.846154"/>
   <stop id="stop3943" offset="1" stop-color="#cfcfcf" stop-opacity="0"/>
  </linearGradient>
  <linearGradient gradientTransform="matrix(0.99992,0,0,0.86395463,1.2423,49.595601)" gradientUnits="userSpaceOnUse" id="linearGradient3905" x1="359.08" x2="359.08" y1="465.67" y2="472.52">
   <stop id="stop3907" offset="0" stop-color="#000000" stop-opacity="0.700855"/>
   <stop id="stop3909" offset="1" stop-color="#4b5151" stop-opacity="0"/>
  </linearGradient>
  <linearGradient id="linearGradient3291">
   <stop id="stop3293" offset="0" stop-color="#b3b3b3"/>
   <stop id="stop3299" offset="0.02" stop-color="#e9e9e9"/>
   <stop id="stop3297" offset="0.04" stop-color="#d4d4d7"/>
   <stop id="stop3303" offset="0.96" stop-color="#e4e4e6"/>
   <stop id="stop3301" offset="0.98" stop-color="#f4f4f4"/>
   <stop id="stop3295" offset="1" stop-color="#b3b3b3"/>
  </linearGradient>
  <linearGradient id="linearGradient3231">
   <stop id="stop3233" offset="0" stop-color="#ffffff"/>
   <stop id="stop3235" offset="1" stop-color="#ffffff" stop-opacity="0.854701"/>
  </linearGradient>
  <radialGradient cx="368.78" cy="101.43" gradientTransform="matrix(1 0 0 0.95 0 5.0362)" gradientUnits="userSpaceOnUse" id="radialGradient3257" r="3.4688" xlink:href="#linearGradient3231"/>
  <linearGradient id="linearGradient3289" x1="-0.000665" x2="1.000655" xlink:href="#linearGradient3291" y1="0.500017" y2="0.500017"/>
  <linearGradient id="linearGradient3339" x1="0.421992" x2="0.421992" y1="0.418048" y2="0.99947">
   <stop id="stop3335" offset="0" stop-color="#c6c6c6"/>
   <stop id="stop3337" offset="1" stop-color="#f2f2f2"/>
  </linearGradient>
  <linearGradient id="linearGradient3466" x1="0.446879" x2="0.446879" y1="-0.087939" y2="1.517431">
   <stop id="stop3356" offset="0" stop-color="#d1d4d6"/>
   <stop id="stop3947" offset="0.5" stop-color="#a1a5a6"/>
   <stop id="stop3483" offset="1" stop-color="#000000"/>
  </linearGradient>
  <linearGradient id="linearGradient3919" x1="1.03193" x2="0.965196" xlink:href="#linearGradient3905" y1="0.599037" y2="0.542954"/>
  <linearGradient id="linearGradient3921" x1="-0.03193" x2="0.034804" xlink:href="#linearGradient3905" y1="0.599036" y2="0.542953"/>
  <linearGradient id="linearGradient3929" x1="-0.00057" x2="1.00057" xlink:href="#linearGradient3291" y1="0.500002" y2="0.500002"/>
  <linearGradient id="linearGradient3937" x1="0" x2="1" xlink:href="#linearGradient3939" y1="0.500012" y2="0.500012"/>
  <linearGradient id="linearGradient3965" x1="0.414827" x2="0.414827" xlink:href="#linearGradient3967" y1="-0.000001" y2="1.379585"/>
  <linearGradient id="linearGradient3975" x1="0.609378" x2="1.044652" xlink:href="#linearGradient3231" y1="0.031653" y2="0.92772"/>
 </defs>
 <metadata id="metadata3129">image/svg+xmlOpenclipartMoonBook Laptop2011-09-06T14:48:13Aluminum unibody laptop computer with glare screen.https://openclipart.org/detail/159331/moonbook-laptop-by-dchestdchestcomputerlaptopmacmacbooknotebook</metadata>
 <g class="layer">
  <title>Layer 1</title>
  <g id="layer1">
   <rect fill="#d0d0d2" height="377.98965" id="rect2453" rx="19.999001" ry="20.788254" stroke="#b3b7b7" stroke-linecap="round" stroke-linejoin="bevel" stroke-width="2" width="542.42999" x="82.888" y="1"/>
   <rect fill="#000000" height="368.16855" id="rect3225" rx="17" ry="17" stroke="#000000" stroke-linecap="round" stroke-linejoin="bevel" stroke-width="1.0088" width="535.76007" x="85.768" y="4.616997"/>
   <rect fill="#ffffff" height="310" id="rect3227" opacity="0.87065" width="495" x="105.00001" y="27.839988"/>
   <path d="m481.98298,5.285998l-261.41994,364.08l399.49384,1.02c0,0 1.28869,-330.92 0.74953,-345.69c-0.56544,-15.469 -9.16547,-19.024 -26.93098,-19.194c-18.67285,-0.179 -111.89245,-0.221 -111.89245,-0.221l0,0.005z" fill="url(#linearGradient3975)" fill-rule="evenodd" id="path3229" opacity="0.054167"/>
   <path d="m357.809181,34.136378a3.4688,3.2954 0 1 1 -6.94,0a3.4688,3.2954 0 1 1 6.94,0z" fill="url(#radialGradient3257)" id="path3241" opacity="0.16418" transform="matrix(1.2563 0 0 1.2563 -94.56 -25.955)"/>
   <rect fill="url(#linearGradient3289)" height="15.965363" id="rect3279" stroke="url(#linearGradient3929)" stroke-linecap="round" stroke-linejoin="bevel" stroke-miterlimit="4" stroke-width="0.804831" width="706.19519" x="0.402416" y="364.472218"/>
   <path d="m297.028,364.009208l0,1.53656c0,4.78796 4.46,8.64209 10,8.64209l86.93,0c5.54,0 10,-3.85413 10,-8.64209l0,-1.53656l-106.93,0z" fill="url(#linearGradient3339)" id="rect3323" opacity="0.87065"/>
   <rect fill="url(#linearGradient3937)" height="2" id="rect3481" width="707" x="0" y="378.840008"/>
   <path d="m403.93763,364.240008l0,1.50959c0,4.70393 -4.46292,8.49041 -10.00654,8.49041l-86.98691,0c-5.54363,0 -10.00655,-3.78648 -10.00655,-8.49041l0,-1.50959l107,0z" fill="url(#linearGradient3919)" id="path3917" opacity="0.87065"/>
   <path d="m297.10007,363.996518l0,1.53656c0,4.78796 4.46,8.64209 10,8.64209l86.93,0c5.54,0 10,-3.85413 10,-8.64209l0,-1.53656l-106.93,0z" fill="url(#linearGradient3921)" id="path3901" opacity="0.87065"/>
   <path d="m0.4,380.824538c6.21838,4.88036 30.22039,6.95031 39.6,7c216.01794,0.0348 620.00002,0 620.00002,0c7.65,0.00094 43.32,-3.29173 46.6,-7l-706.20002,0z" fill="url(#linearGradient3466)" id="rect3341"/>
   <rect fill="none" height="349.34769" id="rect3955" opacity="0.279167" rx="16.930111" ry="16.130957" stroke="#ffffff" stroke-linecap="round" stroke-linejoin="bevel" stroke-miterlimit="4" stroke-width="1" width="533.5575" x="87.0804" y="5.403847"/>
   <rect fill="url(#linearGradient3965)" height="7.192678" id="rect3957" width="443.16507" x="129.75293" y="356.215588"/>
  </g>
 </g>
</svg>