<svg width="34" height="29" viewBox="0 0 34 29" fill="none" xmlns="http://www.w3.org/2000/svg">
<path d="M17.2079 7.81251C12.4379 7.81251 8.5904 11.0188 8.5904 14.9938C8.5904 18.9688 12.4379 22.175 17.2079 22.175C21.9779 22.175 25.8254 18.9688 25.8254 14.9938C25.8254 11.0188 21.9779 7.81251 17.2079 7.81251ZM17.2079 19.6625C14.1254 19.6625 11.6054 17.5688 11.6054 14.9938C11.6054 12.4188 14.1179 10.325 17.2079 10.325C20.2979 10.325 22.8104 12.4188 22.8104 14.9938C22.8104 17.5688 20.2904 19.6625 17.2079 19.6625ZM28.1879 7.51876C28.1879 8.45001 27.2879 9.19376 26.1779 9.19376C25.0604 9.19376 24.1679 8.44376 24.1679 7.51876C24.1679 6.59376 25.0679 5.84376 26.1779 5.84376C27.2879 5.84376 28.1879 6.59376 28.1879 7.51876ZM33.8954 9.21876C33.7679 6.97501 33.1529 4.98751 31.1804 3.35001C29.2154 1.71251 26.8304 1.20001 24.1379 1.08751C21.3629 0.956262 13.0454 0.956262 10.2704 1.08751C7.5854 1.19376 5.2004 1.70626 3.2279 3.34376C1.2554 4.98126 0.6479 6.96876 0.5129 9.21251C0.3554 11.525 0.3554 18.4563 0.5129 20.7688C0.6404 23.0125 1.2554 25 3.2279 26.6375C5.2004 28.275 7.5779 28.7875 10.2704 28.9C13.0454 29.0313 21.3629 29.0313 24.1379 28.9C26.8304 28.7938 29.2154 28.2813 31.1804 26.6375C33.1454 25 33.7604 23.0125 33.8954 20.7688C34.0529 18.4563 34.0529 11.5313 33.8954 9.21876ZM30.3104 23.25C29.7254 24.475 28.5929 25.4188 27.1154 25.9125C24.9029 26.6438 19.6529 26.475 17.2079 26.475C14.7629 26.475 9.5054 26.6375 7.3004 25.9125C5.8304 25.425 4.6979 24.4813 4.1054 23.25C3.2279 21.4063 3.4304 17.0313 3.4304 14.9938C3.4304 12.9563 3.2354 8.57501 4.1054 6.73751C4.6904 5.51251 5.8229 4.56876 7.3004 4.07501C9.5129 3.34376 14.7629 3.51251 17.2079 3.51251C19.6529 3.51251 24.9104 3.35001 27.1154 4.07501C28.5854 4.56251 29.7179 5.50626 30.3104 6.73751C31.1879 8.58126 30.9854 12.9563 30.9854 14.9938C30.9854 17.0313 31.1879 21.4125 30.3104 23.25Z" fill="white"/>
</svg>
