<svg width="35" height="28" viewBox="0 0 35 28" fill="none" xmlns="http://www.w3.org/2000/svg">
<path d="M31.8 0H2.99251C1.67251 0 0.600006 0.90625 0.600006 2.01875V25.9813C0.600006 27.0938 1.67251 28 2.99251 28H31.8C33.12 28 34.2 27.0938 34.2 25.9813V2.01875C34.2 0.90625 33.12 0 31.8 0ZM10.755 24H5.77501V10.6375H10.7625V24H10.755ZM8.26501 8.8125C6.66751 8.8125 5.37751 7.73125 5.37751 6.40625C5.37751 5.08125 6.66751 4 8.26501 4C9.85501 4 11.1525 5.08125 11.1525 6.40625C11.1525 7.7375 9.8625 8.8125 8.26501 8.8125ZM29.4225 24H24.4425V17.5C24.4425 15.95 24.405 13.9563 21.855 13.9563C19.26 13.9563 18.8625 15.6438 18.8625 17.3875V24H13.8825V10.6375H18.66V12.4625H18.7275C19.395 11.4125 21.0225 10.3062 23.445 10.3062C28.485 10.3062 29.4225 13.075 29.4225 16.675V24Z" fill="white"/>
</svg>
