<svg width="34" height="33" viewBox="0 0 34 33" fill="none" xmlns="http://www.w3.org/2000/svg">
<path d="M13.8331 19.6935C12.8982 19.6935 12.1463 18.9774 12.1463 18.1065C12.1463 17.2161 12.8982 16.5 13.8331 16.5C14.7544 16.5 15.4995 17.2161 15.4995 18.1065C15.4995 18.9839 14.7476 19.6935 13.8331 19.6935ZM34.325 16.5C34.325 25.3387 26.8056 32.5 17.525 32.5C8.24436 32.5 0.725006 25.3387 0.725006 16.5C0.725006 7.66129 8.24436 0.5 17.525 0.5C26.8056 0.5 34.325 7.66129 34.325 16.5ZM25.3627 13.8419C24.726 13.8419 24.1637 14.0935 23.7505 14.4871C22.2331 13.4871 20.1873 12.8419 17.9179 12.771L19.0966 7.71935L22.8495 8.52581C22.8495 9.40322 23.6015 10.1129 24.516 10.1129C25.4508 10.1129 26.2027 9.38387 26.2027 8.50645C26.2027 7.62903 25.4508 6.9 24.516 6.9C23.8589 6.9 23.2966 7.27419 23.0189 7.79032L18.8731 6.9129C18.6698 6.86129 18.4598 7.00323 18.4056 7.19677L17.1118 12.771C14.8627 12.8613 12.8373 13.5 11.3198 14.5C10.9066 14.0871 10.324 13.8419 9.68726 13.8419C7.32307 13.8419 6.55081 16.8677 8.71178 17.8935C8.63726 18.2161 8.59662 18.5516 8.59662 18.8935C8.59662 22.2871 12.6069 25.0355 17.5386 25.0355C22.4905 25.0355 26.5008 22.2871 26.5008 18.8935C26.5008 18.5516 26.4602 18.1968 26.3721 17.8742C28.4924 16.8419 27.7134 13.8419 25.3627 13.8419ZM20.6953 21.3387C19.4624 22.5129 15.5402 22.4935 14.3547 21.3387C14.2057 21.1968 13.9415 21.1968 13.7924 21.3387C13.6231 21.5 13.6231 21.7516 13.7924 21.8935C15.3369 23.3645 19.7063 23.3645 21.2576 21.8935C21.4269 21.7516 21.4269 21.5 21.2576 21.3387C21.1086 21.1968 20.8444 21.1968 20.6953 21.3387ZM21.2169 16.5C20.2957 16.5 19.5505 17.2161 19.5505 18.1065C19.5505 18.9839 20.3024 19.6935 21.2169 19.6935C22.1518 19.6935 22.9037 18.9774 22.9037 18.1065C22.9037 17.2161 22.1586 16.5 21.2169 16.5Z" fill="white"/>
</svg>
