<svg width="35" height="26" viewBox="0 0 35 26" fill="none" xmlns="http://www.w3.org/2000/svg">
<path d="M30.9462 6.48225C30.9675 6.7665 30.9675 7.05081 30.9675 7.33506C30.9675 16.0051 24.0386 25.9949 11.3746 25.9949C7.4731 25.9949 3.84876 24.9188 0.800018 23.0508C1.35435 23.1117 1.88729 23.132 2.46296 23.132C5.68219 23.132 8.64568 22.0965 11.0122 20.33C7.98477 20.2691 5.44771 18.3808 4.57359 15.7818C5.00002 15.8426 5.42638 15.8833 5.87414 15.8833C6.4924 15.8833 7.11071 15.802 7.68631 15.6599C4.531 15.0508 2.16443 12.4112 2.16443 9.22338V9.14219C3.08114 9.6295 4.14722 9.93406 5.27709 9.97463C3.42226 8.79694 2.20708 6.78681 2.20708 4.51269C2.20708 3.29444 2.54814 2.17769 3.14513 1.20306C6.53499 5.18275 11.6304 7.78169 17.3441 8.066C17.2375 7.57869 17.1735 7.07113 17.1735 6.5635C17.1735 2.94925 20.2436 0.00512695 24.0598 0.00512695C26.0425 0.00512695 27.8334 0.797002 29.0913 2.07619C30.6476 1.79194 32.14 1.24369 33.4618 0.49244C32.9501 2.01531 31.8628 3.2945 30.4344 4.10663C31.8202 3.96456 33.1634 3.599 34.3999 3.09144C33.462 4.39088 32.2893 5.54819 30.9462 6.48225Z" fill="white"/>
</svg>
